<svg width="25" height="25" viewBox="0 0 25 25" fill="none" xmlns="http://www.w3.org/2000/svg">
<path d="M18.4506 15.5867C18.3387 15.6987 18.1855 15.7694 18.0087 15.7694C17.6669 15.7694 17.3841 15.4865 17.3841 15.1448L17.3841 8.61582L10.8551 8.61582C10.5134 8.61582 10.2305 8.33298 10.2305 7.99121C10.2305 7.64944 10.5134 7.3666 10.8551 7.3666L18.0087 7.3666C18.3505 7.3666 18.6333 7.64944 18.6333 7.99121L18.6333 15.1448C18.6333 15.3216 18.5626 15.4748 18.4506 15.5867Z" fill="white"/>
<path d="M18.3504 8.53307L8.43319 18.4502C8.19159 18.6918 7.7909 18.6918 7.5493 18.4502C7.30771 18.2086 7.30771 17.808 7.5493 17.5664L17.4665 7.64919C17.7081 7.40759 18.1088 7.40759 18.3504 7.64919C18.592 7.89078 18.592 8.29147 18.3504 8.53307Z" fill="white"/>
</svg>
